<svg width="40" height="40" viewBox="0 0 40 40" fill="none" xmlns="http://www.w3.org/2000/svg">
  <!-- Background circle -->
  <circle cx="20" cy="20" r="18" fill="#2563eb" stroke="#1d4ed8" stroke-width="2"/>
  
  <!-- S letter -->
  <path d="M12 12C12 10.8954 12.8954 10 14 10H26C27.1046 10 28 10.8954 28 12V16C28 17.1046 27.1046 18 26 18H14C12.8954 18 12 17.1046 12 16V12Z" fill="white"/>
  <path d="M12 22C12 20.8954 12.8954 20 14 20H26C27.1046 20 28 20.8954 28 22V26C28 27.1046 27.1046 28 26 28H14C12.8954 28 12 27.1046 12 26V22Z" fill="white"/>
  
  <!-- Connection line -->
  <path d="M20 18L20 20" stroke="white" stroke-width="2" stroke-linecap="round"/>
</svg>